<?xml version="1.0" encoding="utf-8"?>
<!-- Generator: Adobe Illustrator 23.0.1, SVG Export Plug-In . SVG Version: 6.00 Build 0)  -->
<svg version="1.1" id="Capa_1" xmlns="http://www.w3.org/2000/svg" xmlns:xlink="http://www.w3.org/1999/xlink" x="0px" y="0px"
	 viewBox="0 0 612 612" style="enable-background:new 0 0 612 612;" xml:space="preserve">
<style type="text/css">
	.st0{fill:#5AB762;}
</style>
<g>
	<g id="_x31__30_">
		<g>
			<path class="st0" d="M421.3,173.4c-9.1-5.3-20.8-2.1-26.1,7L272.8,392.3l-68.4-63.1c-7.2-7.7-19.3-8.1-27-0.9
				c-7.7,7.2-8.1,19.3-0.9,27l87.4,80.6c7.2,7.7,19.3,8.1,27,0.9c2.3-2.2,137.3-237.3,137.3-237.3
				C433.5,190.4,430.4,178.7,421.3,173.4z M306,0C137,0,0,137,0,306s137,306,306,306s306-137,306-306S475,0,306,0z M306,573.8
				C158.1,573.8,38.3,453.9,38.3,306S158.1,38.3,306,38.3S573.8,158.1,573.8,306S453.9,573.8,306,573.8z"/>
		</g>
	</g>
</g>
</svg>
