<?xml version="1.0" encoding="utf-8"?>
<!-- Generator: Adobe Illustrator 23.0.1, SVG Export Plug-In . SVG Version: 6.00 Build 0)  -->
<svg version="1.1" id="Слой_1" xmlns="http://www.w3.org/2000/svg" xmlns:xlink="http://www.w3.org/1999/xlink" x="0px" y="0px"
	 viewBox="0 0 200 200" style="enable-background:new 0 0 200 200;" xml:space="preserve">
<style type="text/css">
	.st0{fill:#787A7A;}
</style>
<path class="st0" d="M100,200C44.8,200,0,155.2,0,100S44.8,0,100,0s100,44.8,100,100S155.2,200,100,200z M100,12.5
	c-48.2,0-87.5,39.3-87.5,87.5s39.3,87.5,87.5,87.5s87.5-39.3,87.5-87.5S148.2,12.5,100,12.5z"/>
<path class="st0" d="M143.8,106.3H56.3c-3.4,0-6.3-2.8-6.3-6.3c0-3.4,2.8-6.3,6.3-6.3h87.5c3.4,0,6.3,2.8,6.3,6.3
	C150,103.4,147.2,106.3,143.8,106.3z"/>
<path class="st0" d="M100,150c-3.4,0-6.3-2.8-6.3-6.3V56.3c0-3.4,2.8-6.3,6.3-6.3c3.4,0,6.3,2.8,6.3,6.3v87.5
	C106.3,147.2,103.4,150,100,150z"/>
</svg>
