<?xml version="1.0" encoding="utf-8"?>
<!-- Generator: Adobe Illustrator 23.0.1, SVG Export Plug-In . SVG Version: 6.00 Build 0)  -->
<svg version="1.1" id="Слой_1" xmlns="http://www.w3.org/2000/svg" xmlns:xlink="http://www.w3.org/1999/xlink" x="0px" y="0px"
	 viewBox="0 0 396.4 90.5" style="enable-background:new 0 0 396.4 90.5;" xml:space="preserve">
<style type="text/css">
	.st0{fill:#FFFFFF;}
	.st1{fill:none;}
</style>
<g>
	<path class="st0" d="M0,45.2l10-0.4l10-0.4l19.9-0.7l39.9,0h79.8h79.8h39.9c13.3,0.5,26.6,0.9,39.9,1.5c-13.3,0.6-26.6,1-39.9,1.5
		h-39.9h-79.8H79.8l-39.9,0L19.9,46l-10-0.4L0,45.2z"/>
</g>
<g>
	<path class="st0" d="M315.1,90.5c6.2-4.3,12.5-8.5,18.8-12.6l19.6-11.3l39.2-22.6v2.6l-39.2-22.6l-19.6-11.3
		c-6.3-4.2-12.6-8.3-18.8-12.6c6.8,3.2,13.6,6.7,20.3,10L355,21.3l39.2,22.6l2.3,1.3l-2.3,1.3L355,69.2l-19.6,11.3
		C328.7,83.9,321.9,87.3,315.1,90.5z"/>
</g>
<g>
	<path class="st1" d="M315.1,90.5"/>
</g>
<g>
	<path class="st1" d="M315.1,0"/>
</g>
</svg>
