<?xml version="1.0" encoding="utf-8"?>
<!-- Generator: Adobe Illustrator 23.0.1, SVG Export Plug-In . SVG Version: 6.00 Build 0)  -->
<svg version="1.1" id="Слой_1" xmlns="http://www.w3.org/2000/svg" xmlns:xlink="http://www.w3.org/1999/xlink" x="0px" y="0px"
	 viewBox="0 0 577 577" style="enable-background:new 0 0 577 577;" xml:space="preserve">
<style type="text/css">
	.st0{fill:#FFFFFF;}
</style>
<path class="st0" d="M491.6,21.9c-2.3-2.3-5.5-3.7-8.9-3.6c-3.3,0-6.5,1.3-8.9,3.6L295.3,200.4l-0.5,0.5l-0.2,0.2
	c-0.2,0.4-0.6,0.7-0.9,1.1c0,0.1-0.1,0.1-0.1,0.2c-0.2,0.4-0.4,0.6-0.6,1c-0.1,0.1-0.1,0.3-0.2,0.4c-0.1,0.4-0.2,0.6-0.4,1
	c0,0.1-0.1,0.1-0.1,0.2l-31.8,95.9c-1.5,4.5-0.4,9.4,3,12.7c2.4,2.3,5.5,3.6,8.8,3.6c1.4,0,2.7-0.2,4-0.6l95.6-31.9
	c0.1,0,0.1,0,0.2-0.1c0.4-0.1,0.8-0.3,1.1-0.5c0.1,0,0.2-0.1,0.3-0.1c0.4-0.2,0.9-0.5,1.2-0.7c0.4-0.2,0.7-0.6,1.1-0.9
	c0.1-0.1,0.2-0.1,0.2-0.2c0.1-0.1,0.4-0.2,0.5-0.5L555.3,103c2.3-2.3,3.7-5.5,3.7-8.8c0-3.3-1.3-6.5-3.7-8.8L491.6,21.9z
	 M309.5,232.3l35.3,35.3l-52.9,17.6L309.5,232.3z M367.9,255.4l-46.1-46.1l161-161l46.1,46.1L367.9,255.4z"/>
<path class="st0" d="M462.1,251.3c-6.9,0-12.4,5.6-12.5,12.5v233c-0.1,20.6-16.8,37.3-37.4,37.4H80.3c-20.6-0.1-37.3-16.8-37.4-37.4
	V164.9c0.1-20.6,16.8-37.3,37.4-37.4h233c6.9,0,12.5-5.6,12.5-12.5s-5.6-12.5-12.5-12.5h-233c-34.4,0-62.3,27.9-62.3,62.3v331.9
	c0,34.4,27.9,62.3,62.3,62.3h331.9c34.4,0,62.3-27.9,62.3-62.3v-233C474.6,256.9,469,251.3,462.1,251.3z"/>
</svg>
