<?xml version="1.0" encoding="utf-8"?>
<!-- Generator: Adobe Illustrator 23.0.1, SVG Export Plug-In . SVG Version: 6.00 Build 0)  -->
<svg version="1.1" id="Capa_1" xmlns="http://www.w3.org/2000/svg" xmlns:xlink="http://www.w3.org/1999/xlink" x="0px" y="0px"
	 viewBox="0 0 480 480" style="enable-background:new 0 0 480 480;" xml:space="preserve">
<style type="text/css">
	.st0{fill:#FFFFFF;}
</style>
<g>
	<g>
		<path class="st0" d="M272,176.2h-64c-4.4,0-8,3.6-8,8v224c0,4.4,3.6,8,8,8h64c4.4,0,8-3.6,8-8v-224
			C280,179.8,276.4,176.2,272,176.2z M264,400.2h-48v-208h48V400.2z"/>
	</g>
</g>
<g>
	<g>
		<path class="st0" d="M464,144.2h-64c-4.4,0-8,3.6-8,8v256c0,4.4,3.6,8,8,8h64c4.4,0,8-3.6,8-8v-256
			C472,147.8,468.4,144.2,464,144.2z M456,400.2h-48v-240h48V400.2z"/>
	</g>
</g>
<g>
	<g>
		<path class="st0" d="M368,320.2h-64c-4.4,0-8,3.6-8,8v80c0,4.4,3.6,8,8,8h64c4.4,0,8-3.6,8-8v-80C376,323.8,372.4,320.2,368,320.2
			z M360,400.2h-48v-64h48V400.2z"/>
	</g>
</g>
<g>
	<g>
		<path class="st0" d="M80,208.2H16c-4.4,0-8,3.6-8,8v192c0,4.4,3.6,8,8,8h64c4.4,0,8-3.6,8-8v-192C88,211.8,84.4,208.2,80,208.2z
			 M72,400.2H24v-176h48V400.2z"/>
	</g>
</g>
<g>
	<g>
		<path class="st0" d="M176,256.2h-64c-4.4,0-8,3.6-8,8v144c0,4.4,3.6,8,8,8h64c4.4,0,8-3.6,8-8v-144
			C184,259.8,180.4,256.2,176,256.2z M168,400.2h-48v-128h48V400.2z"/>
	</g>
</g>
<g>
	<g>
		<path class="st0" d="M432.5,7.8c-17.8-0.1-32.3,14.2-32.5,32c-0.1,9,3.6,17.6,10.2,23.7l-66.4,121.8c-6-1.7-12.4-1.4-18.2,0.8
			l-61.8-92.7c11.8-13.1,10.8-33.4-2.3-45.2s-33.4-10.8-45.2,2.3c-8.7,9.6-10.7,23.6-5.1,35.3l-48.6,40.4c-13.3-9.7-31.9-7.5-42.6,5
			l-40.7-20.4c3.7-17.3-7.3-34.3-24.6-38c-17.3-3.7-34.3,7.3-38,24.6c-3.7,17.3,7.3,34.3,24.6,38c2.2,0.5,4.5,0.7,6.7,0.7
			c9.2,0,18-4.1,24-11.1l40.7,20.4c-3.8,17.3,7,34.3,24.3,38.2c17.3,3.8,34.4-7,38.2-24.3c1.6-7,0.7-14.4-2.4-20.8l48.6-40.4
			c8.4,6.2,19.3,7.8,29.1,4.2l61.8,92.7c-11.8,13.2-10.7,33.4,2.4,45.2c13.2,11.8,33.4,10.7,45.2-2.4c11.7-13,10.8-32.9-2-44.8
			l66.4-121.8c2.5,0.7,5.2,1,7.8,1c17.8,0.1,32.3-14.2,32.5-32S450.3,7.9,432.5,7.8z M48,120.2c-8.8,0-16-7.2-16-16s7.2-16,16-16
			s16,7.2,16,16S56.8,120.2,48,120.2z M144,168.2c-8.8,0-16-7.2-16-16s7.2-16,16-16s16,7.2,16,16S152.8,168.2,144,168.2z M240,88.2
			c-8.8,0-16-7.2-16-16s7.2-16,16-16s16,7.2,16,16S248.8,88.2,240,88.2z M336,232.2c-8.8,0-16-7.2-16-16s7.2-16,16-16s16,7.2,16,16
			S344.8,232.2,336,232.2z M432,56.2c-8.8,0-16-7.2-16-16s7.2-16,16-16s16,7.2,16,16S440.8,56.2,432,56.2z"/>
	</g>
</g>
<g>
	<g>
		<path class="st0" d="M472,424.2H8c-4.4,0-8,3.6-8,8v32c0,4.4,3.6,8,8,8h464c4.4,0,8-3.6,8-8v-32C480,427.8,476.4,424.2,472,424.2z
			 M464,456.2H16v-16h448V456.2z"/>
	</g>
</g>
</svg>
