<?xml version="1.0" encoding="utf-8"?>
<!-- Generator: Adobe Illustrator 23.0.1, SVG Export Plug-In . SVG Version: 6.00 Build 0)  -->
<svg version="1.1" id="Capa_1" xmlns="http://www.w3.org/2000/svg" xmlns:xlink="http://www.w3.org/1999/xlink" x="0px" y="0px"
	 viewBox="0 0 512 512" style="enable-background:new 0 0 512 512;" xml:space="preserve">
<style type="text/css">
	.st0{fill:#FFFFFF;}
</style>
<g>
	<path class="st0" d="M280.1,123.5c0-13.3-10.8-24.1-24.1-24.1s-24.1,10.8-24.1,24.1s10.8,24.1,24.1,24.1S280.1,136.7,280.1,123.5z
		 M246.9,123.5c0-5,4.1-9.1,9.1-9.1c5,0,9.1,4.1,9.1,9.1c0,5-4.1,9.1-9.1,9.1C251,132.5,246.9,128.5,246.9,123.5L246.9,123.5z"/>
	<path class="st0" d="M471.9,430.7h-9.6v-42.2c0-13.3-10.8-24.1-24.1-24.1H280.8c-0.4,0-0.8-0.4-0.8-0.8v-17.3h75.3
		c13.3,0,24.1-10.8,24.1-24.1v-187l5.4,3.6c3.5,2.3,7.7,3.2,11.9,2.3c4.1-0.8,7.7-3.2,10-6.7l9.2-13.8c4.8-7.2,2.9-17.1-4.4-21.9
		L269.3,4.1c-8.1-5.4-18.6-5.4-26.7,0L100.4,98.9c-7.2,4.8-9.2,14.6-4.4,21.9l9.2,13.8c2.3,3.5,5.9,5.9,10,6.7
		c1,0.2,2.1,0.3,3.1,0.3c3.1,0,6.1-0.9,8.7-2.7l5.4-3.6v22.9c0,4.1,3.4,7.5,7.5,7.5s7.5-3.4,7.5-7.5v-32.9l108-72
		c0.3-0.2,0.6-0.2,0.9,0l108,72v106.6h-17.6c-8.5,0-15.5,7-15.5,15.5v17.1c0,8.5,7,15.5,15.5,15.5h17.6v42.2c0,5-4.1,9.1-9.1,9.1
		h-9.1v-17.6c0-8.5-7-15.5-15.5-15.5h-17.6v-17.6c0-8.5-7-15.5-15.5-15.5h-1.1v-51.3h1.1c8.5,0,15.5-7,15.5-15.5v-17.1
		c0-8.5-7-15.5-15.5-15.5h-83.4c-8.5,0-15.5,7-15.5,15.5v17.1c0,8.5,7,15.5,15.5,15.5h1.1v51.3h-1.1c-8.5,0-15.5,7-15.5,15.5v17.6
		h-17.6c-8.5,0-15.5,7-15.5,15.5v17.6h-9.1c-5,0-9.1-4.1-9.1-9.1v-42.2h17.6c8.5,0,15.5-7,15.5-15.5v-17.1c0-8.5-7-15.5-15.5-15.5
		h-17.6v-43.8c0-4.1-3.4-7.5-7.5-7.5s-7.5,3.4-7.5,7.5v134.1c0,13.3,10.8,24.1,24.1,24.1h75.3v17.3c0,0.4-0.4,0.8-0.8,0.8H73.8
		c-13.3,0-24.1,10.8-24.1,24.1v42.2h-9.6c-13,0-23.5,10.5-23.5,23.5v34.3c0,13,10.5,23.5,23.5,23.5h67.4c13,0,23.5-10.5,23.5-23.5
		v-34.3c0-13-10.5-23.5-23.5-23.5h-9.6v-17.3c0-0.4,0.4-0.8,0.8-0.8H125c4.1,0,7.5-3.4,7.5-7.5c0-4.1-3.4-7.5-7.5-7.5H98.6
		c-8.7,0-15.8,7.1-15.8,15.8v17.3H64.7v-42.2c0-5,4.1-9.1,9.1-9.1h157.4c8.7,0,15.8-7.1,15.8-15.8v-17.3h18.1v17.3
		c0,8.7,7.1,15.8,15.8,15.8h157.4c5,0,9.1,4.1,9.1,9.1v42.2h-18.1v-17.3c0-8.7-7.1-15.8-15.8-15.8H280.8c-8.7,0-15.8,7.1-15.8,15.8
		v17.3h-18.1v-17.3c0-8.7-7.1-15.8-15.8-15.8H155c-4.1,0-7.5,3.4-7.5,7.5c0,4.1,3.4,7.5,7.5,7.5h76.1c0.4,0,0.8,0.4,0.8,0.8v17.3
		h-9.6c-13,0-23.5,10.5-23.5,23.5v34.3c0,13,10.5,23.5,23.5,23.5h67.4c13,0,23.5-10.5,23.5-23.5v-34.3c0-13-10.5-23.5-23.5-23.5
		h-9.6v-17.3c0-0.4,0.4-0.8,0.8-0.8h132.5c0.4,0,0.8,0.4,0.8,0.8v17.3h-9.6c-13,0-23.5,10.5-23.5,23.5v34.3
		c0,13,10.5,23.5,23.5,23.5h67.4c13,0,23.5-10.5,23.5-23.5v-34.3C495.4,441.3,484.9,430.7,471.9,430.7L471.9,430.7z M256,38.2
		c-3,0-6.1,0.9-8.8,2.7l-128.4,85.6c-0.2,0.1-0.4,0.2-0.6,0.1c-0.2,0-0.4-0.2-0.5-0.3l-9.2-13.8c-0.1-0.2-0.2-0.4-0.1-0.6
		c0-0.2,0.2-0.4,0.3-0.5L251,16.5c3.1-2,7-2,10.1,0l142.2,94.8c0.2,0.1,0.3,0.3,0.3,0.5c0,0.2,0,0.4-0.1,0.6l-9.2,13.8
		c-0.1,0.2-0.3,0.3-0.5,0.3c-0.2,0-0.4,0-0.6-0.1L264.8,40.8C262.1,39,259,38.2,256,38.2L256,38.2z M346.8,265.1
		c-0.3,0-0.5-0.2-0.5-0.5v-17.1c0-0.3,0.2-0.5,0.5-0.5h17.6v18.1H346.8z M165.2,246.9c0.3,0,0.5,0.2,0.5,0.5v17.1
		c0,0.3-0.2,0.5-0.5,0.5h-17.6v-18.1H165.2z M107.5,445.7c4.7,0,8.5,3.8,8.5,8.5v34.3c0,4.7-3.8,8.5-8.5,8.5H40.1
		c-4.7,0-8.5-3.8-8.5-8.5v-34.3c0-4.7,3.8-8.5,8.5-8.5H107.5z M281.6,265.1h-18.1v-51.3h18.1V265.1z M213.8,198.3v-17.1
		c0-0.3,0.2-0.5,0.5-0.5h83.4c0.3,0,0.5,0.2,0.5,0.5v17.1c0,0.3-0.2,0.5-0.5,0.5h-83.4C214,198.8,213.8,198.6,213.8,198.3
		L213.8,198.3z M230.4,213.8h18.1v51.3h-18.1V213.8z M213.8,280.6c0-0.3,0.2-0.5,0.5-0.5h83.4c0.3,0,0.5,0.2,0.5,0.5v17.6h-84.4
		L213.8,280.6z M180.7,331.3v-17.6c0-0.3,0.2-0.5,0.5-0.5h149.7c0.3,0,0.5,0.2,0.5,0.5v17.6H180.7z M298.2,454.2v34.3
		c0,4.7-3.8,8.5-8.5,8.5h-67.4c-4.7,0-8.5-3.8-8.5-8.5v-34.3c0-4.7,3.8-8.5,8.5-8.5h67.4C294.4,445.7,298.2,449.5,298.2,454.2z
		 M480.4,488.5c0,4.7-3.8,8.5-8.5,8.5h-67.4c-4.7,0-8.5-3.8-8.5-8.5v-34.3c0-4.7,3.8-8.5,8.5-8.5h67.4c4.7,0,8.5,3.8,8.5,8.5V488.5z
		"/>
</g>
</svg>
