<?xml version="1.0" encoding="utf-8"?>
<!-- Generator: Adobe Illustrator 23.0.1, SVG Export Plug-In . SVG Version: 6.00 Build 0)  -->
<svg version="1.1" id="Capa_1" xmlns="http://www.w3.org/2000/svg" xmlns:xlink="http://www.w3.org/1999/xlink" x="0px" y="0px"
	 viewBox="0 0 512 512" style="enable-background:new 0 0 512 512;" xml:space="preserve">
<style type="text/css">
	.st0{fill:#FFFFFF;}
</style>
<g>
	<g>
		<path class="st0" d="M377,327c-16.6,0-30,13.4-30,30v20c0,16.6,13.4,30,30,30s30-13.4,30-30v-20C407,340.4,393.6,327,377,327z"/>
	</g>
</g>
<g>
	<g>
		<path class="st0" d="M377,417c-44.2,0-80,35.8-80,80h160C457,452.8,421.2,417,377,417z"/>
	</g>
</g>
<g>
	<g>
		<path class="st0" d="M382,0c-71.8,0-130,58.2-130,130c0,12.2,1.7,24,4.8,35.2L0,422v90h90v-50h50v-47.4l47,0.4l159.8-159.8
			c11.2,3.1,23,4.8,35.2,4.8c71.8,0,130-58.2,130-130S453.8,0,382,0z M208.1,325.1l-21.2-21.2l91.5-91.5l21.2,21.2L208.1,325.1z
			 M412,135c-19.3,0-35-15.7-35-35s15.7-35,35-35s35,15.7,35,35S431.3,135,412,135z"/>
	</g>
</g>
</svg>
