<?xml version="1.0" encoding="utf-8"?>
<!-- Generator: Adobe Illustrator 23.0.1, SVG Export Plug-In . SVG Version: 6.00 Build 0)  -->
<svg version="1.1" id="Capa_1" xmlns="http://www.w3.org/2000/svg" xmlns:xlink="http://www.w3.org/1999/xlink" x="0px" y="0px"
	 viewBox="0 0 512 512" style="enable-background:new 0 0 512 512;" xml:space="preserve">
<style type="text/css">
	.st0{fill:#447691;}
</style>
<g>
	<g>
		<path class="st0" d="M507.6,241.9c-4.6-6.6-114.5-162-252.2-162S7.8,235.3,3.2,241.9c-5.1,7.4-5.1,18.5,0,25.9
			c4.6,6.6,114.5,162,252.2,162s247.6-155.4,252.2-162C512.7,260.5,512.7,249.3,507.6,241.9z M255.4,391c-57.9,0-105-61.1-105-136.1
			s47.1-136.1,105-136.1s105,61.1,105,136.1S313.3,391,255.4,391z"/>
	</g>
</g>
<g>
	<g>
		<path class="st0" d="M270.4,216c0-19.6,7.5-36.8,18.9-47.3c-10.2-6.7-21.6-11-33.9-11c-41.4,0-75,43.6-75,97.2s33.6,97.2,75,97.2
			c37,0,67.7-35,73.7-80.9C298.9,283.9,270.4,254.2,270.4,216z"/>
	</g>
</g>
</svg>
