<?xml version="1.0" encoding="utf-8"?>
<!-- Generator: Adobe Illustrator 23.0.1, SVG Export Plug-In . SVG Version: 6.00 Build 0)  -->
<svg version="1.1" id="Layer_1" xmlns="http://www.w3.org/2000/svg" xmlns:xlink="http://www.w3.org/1999/xlink" x="0px" y="0px"
	 viewBox="0 0 512 512" style="enable-background:new 0 0 512 512;" xml:space="preserve">
<style type="text/css">
	.st0{fill:#E2E5E7;}
	.st1{fill:#B0B7BD;}
	.st2{fill:#CAD1D8;}
	.st3{fill:#50BEE8;}
	.st4{fill:#FFFFFF;}
</style>
<path class="st0" d="M128,0c-17.6,0-32,14.4-32,32v448c0,17.6,14.4,32,32,32h320c17.6,0,32-14.4,32-32V128L352,0H128z"/>
<path class="st1" d="M384,128h96L352,0v96C352,113.6,366.4,128,384,128z"/>
<polygon class="st2" points="480,224 384,128 480,128 "/>
<path class="st3" d="M416,416c0,8.8-7.2,16-16,16H48c-8.8,0-16-7.2-16-16V256c0-8.8,7.2-16,16-16h352c8.8,0,16,7.2,16,16V416z"/>
<g>
	<path class="st4" d="M66,376.2c-3.8,0-7.9-2.1-7.9-7.1v-64.6c0-4.1,4.1-7.1,7.9-7.1h26c52,0,50.8,78.7,1,78.7H66z M73.1,311.3v51
		H92c30.7,0,32.1-51,0-51H73.1z"/>
	<path class="st4" d="M186.4,377.3c-21,0.9-42.9-13.1-42.9-41c0-28,21.8-41.7,42.9-41.7c19.9,1,40.7,14.8,40.7,41.7
		C227.1,363.3,206.3,377.3,186.4,377.3z M185.1,309.4c-12.7,0-26.6,9-26.6,27c0,17.9,13.9,27,26.6,27c13.1,0,27.1-9.1,27.1-27
		C212.2,318.4,198.2,309.4,185.1,309.4z"/>
	<path class="st4" d="M240.5,336.3c0-21.9,13.8-40.8,39.9-40.8c9.9,0,17.8,3,26,10.1c3.1,2.8,3.4,7.8,0.3,11
		c-3.1,2.7-7.7,2.4-10.5-0.3c-4.7-4.9-9.4-6.2-15.9-6.2c-17.5,0-25.9,12.4-25.9,26.3c0,14.1,8.3,27.1,25.9,27.1
		c6.5,0,12.5-2.6,17.8-7.3c3.5-2.7,8.4-1.4,10.5,1.4c1.8,2.5,2.7,6.7-1.3,10.7c-8,7.4-17.5,8.9-27,8.9
		C252.9,377,240.5,358.2,240.5,336.3z"/>
</g>
<path class="st2" d="M400,432H96v16h304c8.8,0,16-7.2,16-16v-16C416,424.8,408.8,432,400,432z"/>
<g>
	<path class="st4" d="M361.7,323.4l22.5-25.8c6.7-8,19.7,2.2,12.4,9.9c-7.7,8.4-15.9,17.5-23.6,26.8l26.3,30
		c7.1,8.9-7.1,17.4-14.1,8.6l-23.7-27.9l-23.3,28.5c-6.6,8.6-21.2-1.1-13.8-9.1l25.9-30.1c-8.1-9.3-16-18.4-23.9-26.8
		c-8.1-8.9,7-18,12.9-9.7L361.7,323.4z"/>
</g>
</svg>
