<?xml version="1.0" encoding="utf-8"?>
<!-- Generator: Adobe Illustrator 23.0.1, SVG Export Plug-In . SVG Version: 6.00 Build 0)  -->
<svg version="1.1" id="Layer_1" xmlns="http://www.w3.org/2000/svg" xmlns:xlink="http://www.w3.org/1999/xlink" x="0px" y="0px"
	 viewBox="0 0 512 512" style="enable-background:new 0 0 512 512;" xml:space="preserve">
<style type="text/css">
	.st0{fill:#E2E5E7;}
	.st1{fill:#B0B7BD;}
	.st2{fill:#CAD1D8;}
	.st3{fill:#43B2EF;}
	.st4{fill:#FFFFFF;}
	.st5{enable-background:new    ;}
</style>
<path class="st0" d="M128,0c-17.6,0-32,14.4-32,32v448c0,17.6,14.4,32,32,32h320c17.6,0,32-14.4,32-32V128L352,0H128z"/>
<path class="st1" d="M384,128h96L352,0v96C352,113.6,366.4,128,384,128z"/>
<polygon class="st2" points="480,224 384,128 480,128 "/>
<path class="st3" d="M416,416c0,8.8-7.2,16-16,16H48c-8.8,0-16-7.2-16-16V256c0-8.8,7.2-16,16-16h352c8.8,0,16,7.2,16,16V416z"/>
<path class="st4" d="M303.9,312.1v20.3h32.6c4.6,0,9.2,4.6,9.2,9.1c0,4.2-4.6,7.7-9.2,7.7h-32.6v26.9c0,4.5-3.2,7.9-7.7,7.9
	c-5.6,0-9.1-3.4-9.1-7.9v-72.7c0-4.6,3.5-7.9,9.1-7.9h44.9c5.6,0,9,3.3,9,7.9c0,4.1-3.3,8.7-9,8.7L303.9,312.1L303.9,312.1z"/>
<path class="st2" d="M400,432H96v16h304c8.8,0,16-7.2,16-16v-16C416,424.8,408.8,432,400,432z"/>
<path class="st4" d="M226.2,311.4h-22.4c-11.1,0-11.1-16.4,0-16.4h60.5c11.4,0,11.4,16.4,0,16.4h-21.2V376c0,11.1-16.9,11.4-16.9,0
	V311.4L226.2,311.4z"/>
<g class="st5">
	<path class="st4" d="M181.9,381.3c0,0.5-0.1,0.9-0.3,1.3c-0.2,0.3-0.6,0.6-1.3,0.9s-1.7,0.4-3,0.5c-1.3,0.1-3.1,0.1-5.4,0.1
		c-1.9,0-3.5,0-4.6-0.1c-1.1-0.1-2.1-0.3-2.7-0.5c-0.7-0.3-1.1-0.6-1.4-1c-0.3-0.4-0.5-0.9-0.7-1.4l-8-20c-1-2.3-1.9-4.3-2.8-6
		c-0.9-1.8-1.9-3.2-3.1-4.4c-1.1-1.2-2.4-2.1-3.9-2.7c-1.5-0.6-3.2-0.9-5.1-0.9H134v34.1c0,0.5-0.1,0.9-0.4,1.2
		c-0.3,0.4-0.8,0.7-1.5,0.9s-1.6,0.4-2.8,0.6c-1.1,0.1-2.6,0.2-4.4,0.2c-1.7,0-3.2-0.1-4.4-0.2c-1.2-0.1-2.1-0.3-2.8-0.6
		c-0.7-0.2-1.2-0.5-1.4-0.9c-0.3-0.4-0.4-0.8-0.4-1.2v-81.3c0-2,0.5-3.5,1.5-4.4c1-0.9,2.3-1.3,3.8-1.3h23c2.3,0,4.3,0,5.8,0.1
		c1.5,0.1,2.9,0.2,4.1,0.3c3.6,0.5,6.8,1.4,9.7,2.6c2.9,1.2,5.3,2.9,7.3,4.9c2,2,3.5,4.4,4.6,7.1c1.1,2.7,1.6,5.9,1.6,9.4
		c0,3-0.4,5.7-1.1,8.2s-1.9,4.7-3.3,6.6c-1.5,1.9-3.3,3.6-5.4,5.1c-2.2,1.4-4.6,2.6-7.4,3.5c1.3,0.6,2.6,1.4,3.7,2.4
		c1.2,0.9,2.3,2,3.3,3.4c1,1.3,2,2.8,2.9,4.5c0.9,1.7,1.8,3.6,2.7,5.7l7.5,17.7c0.7,1.8,1.1,3,1.4,3.8
		C181.8,380.2,181.9,380.9,181.9,381.3z M158.6,320.6c0-3-0.7-5.4-2-7.5c-1.3-2-3.5-3.5-6.5-4.3c-0.9-0.2-2-0.4-3.1-0.6
		c-1.2-0.1-2.8-0.2-4.9-0.2H134v25.4h9.2c2.6,0,4.8-0.3,6.7-0.9c1.9-0.6,3.5-1.5,4.8-2.6c1.3-1.1,2.2-2.5,2.9-4
		C158.3,324.3,158.6,322.5,158.6,320.6z"/>
</g>
</svg>
